:FULLY-SPECIFIED
:FORCE-ALL-JOINTS-BE-3DOF
:DEGREES
815
root 2.15342 16.5297 23.2764 3.3875 -0.676745 351.556
lfemur -35.2789 0.305524 2.84596
ltibia 18.9022 0 0
lfoot -8.34282 16.0823 0
ltoes 19.9625 0 0
rfemur 5.5375 4.84505 22.0395
rtibia 20.372 0 0
rfoot -21.0473 -13.7796 0
rtoes -27.0726 0 0
lowerback -0.0961527 6.89052 5.54266
upperback -0.411491 9.18301 -0.167659
thorax 0.526064 4.59938 -3.09679
lowerneck -5.42463 -1.69684 3.19346
upperneck 0.363152 -2.48613 1.53176
head 1.00914 -1.20535 -0.118506
lclavicle 1.0948e-15 -3.74518e-16 0
lhumerus -53.7159 -6.16184 90.4464
lradius 52.9372 0 0
lwrist 17.7307 0 0
lhand -7.1907 4.91917 0
lfingers 7.12502 0 0
lthumb 18.6854 34.0101 0
rclavicle 1.0948e-15 -3.74518e-16 0
rhumerus -29.3978 45.2034 -107.962
rradius 67.6322 0 0
rwrist -2.22843 0 0
rhand -7.50069 -21.9345 0
rfingers 7.12502 0 0
rthumb 18.3867 -771.044 0
816
root 2.16297 16.5329 23.3614 3.70533 -2.08358 351.772
lfemur -35.2522 0.0702024 3.15373
ltibia 18.3334 0 0
lfoot -8.09728 16.0001 0
ltoes 20.0311 0 0
rfemur 5.91821 5.34399 22.0492
rtibia 19.8009 0 0
rfoot -21.1021 -13.4421 0
rtoes -27.1065 0 0
lowerback -0.118547 6.93034 5.65892
upperback -0.402652 9.23637 -0.101897
thorax 0.557858 4.62599 -3.08885
lowerneck -5.42631 -1.6075 3.26334
upperneck 0.414639 -2.3732 1.46678
head 1.02037 -1.14948 -0.147994
lclavicle 1.00699e-15 -3.81273e-16 0
lhumerus -53.6787 -6.06303 90.3675
lradius 52.618 0 0
lwrist 17.8175 0 0
lhand -6.93654 5.09955 0
lfingers 7.12502 0 0
lthumb 18.9304 34.1755 0
rclavicle 1.00699e-15 -3.81273e-16 0
rhumerus -29.3749 45.1506 -107.88
rradius 67.407 0 0
rwrist -2.37547 0 0
rhand -7.20478 -21.9675 0
rfingers 7.12502 0 0
rthumb 18.6721 -771.061 0
817
root 2.171 16.5356 23.433 3.97268 -3.26696 351.954
lfemur -35.2296 -0.127741 3.41261
ltibia 17.8549 0 0
lfoot -7.89074 15.931 0
ltoes 20.0887 0 0
rfemur 6.23846 5.76368 22.0574
rtibia 19.3205 0 0
rfoot -21.1482 -13.1583 0
rtoes -27.135 0 0
lowerback -0.137384 6.96384 5.75672
upperback -0.395217 9.28126 -0.046581
thorax 0.584601 4.64837 -3.08217
lowerneck -5.42772 -1.53236 3.32212
upperneck 0.457948 -2.27821 1.41212
head 1.02981 -1.10248 -0.172797
lclavicle 9.33121e-16 -3.86955e-16 0
lhumerus -53.6473 -5.97992 90.3012
lradius 52.3495 0 0
lwrist 17.8904 0 0
lhand -6.72276 5.25128 0
lfingers 7.12502 0 0
lthumb 19.1364 34.3147 0
rclavicle 9.33121e-16 -3.86955e-16 0
rhumerus -29.3557 45.1063 -107.811
rradius 67.2176 0 0
rwrist -2.49915 0 0
rhand -6.95588 -21.9954 0
rfingers 7.12502 0 0
rthumb 18.9121 -771.076 0
818
root 2.17741 16.5377 23.4901 4.18629 -4.21246 352.099
lfemur -35.2117 -0.285895 3.61945
ltibia 17.4726 0 0
lfoot -7.72572 15.8758 0
ltoes 20.1348 0 0
rfemur 6.49433 6.099 22.0639
rtibia 18.9367 0 0
rfoot -21.185 -12.9315 0
rtoes -27.1578 0 0
lowerback -0.152434 6.99061 5.83486
upperback -0.389276 9.31712 -0.00238402
thorax 0.605969 4.66625 -3.07683
lowerneck -5.42885 -1.47231 3.36908
upperneck 0.492551 -2.20232 1.36845
head 1.03736 -1.06493 -0.192615
lclavicle 8.74104e-16 -3.91495e-16 0
lhumerus -53.6223 -5.91351 90.2482
lradius 52.135 0 0
lwrist 17.9487 0 0
lhand -6.55194 5.37251 0
lfingers 7.12502 0 0
lthumb 19.3011 34.4259 0
rclavicle 8.74104e-16 -3.91495e-16 0
rhumerus -29.3403 45.0708 -107.756
rradius 67.0663 0 0
rwrist -2.59797 0 0
rhand -6.75701 -22.0176 0
rfingers 7.12502 0 0
rthumb 19.1038 -771.088 0
819
root 2.18212 16.5393 23.532 4.3429 -4.90566 352.205
lfemur -35.1985 -0.401847 3.7711
ltibia 17.1923 0 0
lfoot -7.60473 15.8353 0
ltoes 20.1685 0 0
rfemur 6.68192 6.34485 22.0687
rtibia 18.6552 0 0
rfoot -21.212 -12.7652 0
rtoes -27.1745 0 0
lowerback -0.163469 7.01023 5.89215
upperback -0.384921 9.34341 0.0300196
thorax 0.621635 4.67936 -3.07292
lowerneck -5.42968 -1.42829 3.40352
upperneck 0.51792 -2.14667 1.33643
head 1.0429 -1.0374 -0.207145
lclavicle 8.30834e-16 -3.94823e-16 0
lhumerus -53.6039 -5.86482 90.2094
lradius 51.9777 0 0
lwrist 17.9914 0 0
lhand -6.42671 5.4614 0
lfingers 7.12502 0 0
lthumb 19.4218 34.5074 0
rclavicle 8.30834e-16 -3.94823e-16 0
rhumerus -29.3291 45.0448 -107.715
rradius 66.9553 0 0
rwrist -2.67042 0 0
rhand -6.6112 -22.0339 0
rfingers 7.12502 0 0
rthumb 19.2444 -771.097 0
820
root 2.18501 16.5403 23.5578 4.43926 -5.33216 352.271
lfemur -35.1904 -0.473187 3.8644
ltibia 17.0199 0 0
lfoot -7.53029 15.8104 0
ltoes 20.1893 0 0
rfemur 6.79734 6.4961 22.0716
rtibia 18.4821 0 0
rfoot -21.2286 -12.6629 0
rtoes -27.1848 0 0
lowerback -0.170258 7.0223 5.9274
upperback -0.382241 9.35959 0.049956
thorax 0.631274 4.68743 -3.07051
lowerneck -5.43019 -1.40121 3.4247
upperneck 0.533529 -2.11244 1.31673
head 1.0463 -1.02046 -0.216084
lclavicle 8.04213e-16 -3.96871e-16 0
lhumerus -53.5926 -5.83487 90.1854
lradius 51.881 0 0
lwrist 18.0177 0 0
lhand -6.34966 5.51608 0
lfingers 7.12502 0 0
lthumb 19.4961 34.5576 0
rclavicle 8.04213e-16 -3.96871e-16 0
rhumerus -29.3222 45.0288 -107.69
rradius 66.8871 0 0
rwrist -2.715 0 0
rhand -6.5215 -22.0439 0
rfingers 7.12502 0 0
rthumb 19.3309 -771.102 0
821
root 2.186 16.5406 23.5666 4.4721 -5.47753 352.293
lfemur -35.1876 -0.497503 3.8962
ltibia 16.9611 0 0
lfoot -7.50492 15.8019 0
ltoes 20.1964 0 0
rfemur 6.83668 6.54766 22.0726
rtibia 18.4231 0 0
rfoot -21.2343 -12.628 0
rtoes -27.1883 0 0
lowerback -0.172572 7.02642 5.93941
upperback -0.381328 9.3651 0.0567512
thorax 0.634559 4.69018 -3.06969
lowerneck -5.43036 -1.39198 3.43192
upperneck 0.538849 -2.10077 1.31002
head 1.04746 -1.01469 -0.219131
lclavicle 7.95139e-16 -3.97569e-16 0
lhumerus -53.5888 -5.82466 90.1773
lradius 51.848 0 0
lwrist 18.0267 0 0
lhand -6.3234 5.53472 0
lfingers 7.12502 0 0
lthumb 19.5214 34.5747 0
rclavicle 7.95139e-16 -3.97569e-16 0
rhumerus -29.3198 45.0234 -107.682
rradius 66.8638 0 0
rwrist -2.73019 0 0
rhand -6.49092 -22.0473 0
rfingers 7.12502 0 0
rthumb 19.3604 -771.104 0
822
root 2.18917 16.5407 23.5765 4.43773 -5.43643 352.305
lfemur -35.1482 -0.486197 3.85551
ltibia 16.9915 0 0
lfoot -7.49985 15.7272 0
ltoes 20.2019 0 0
rfemur 6.72076 6.53461 22.0423
rtibia 18.4969 0 0
rfoot -21.1821 -12.6064 0
rtoes -27.1449 0 0
lowerback -0.149651 7.01162 5.92129
upperback -0.373292 9.34442 0.0548221
thorax 0.628758 4.67985 -3.06125
lowerneck -5.43208 -1.39544 3.43007
upperneck 0.552189 -2.10593 1.31325
head 1.05232 -1.0169 -0.218117
lclavicle 8.29537e-16 -4.30374e-16 0
lhumerus -53.5589 -5.85208 90.1607
lradius 51.8542 0 0
lwrist 18.0351 0 0
lhand -6.29984 5.53263 0
lfingers 7.12502 0 0
lthumb 19.544 34.5693 0
rclavicle 8.29537e-16 -4.30374e-16 0
rhumerus -29.3558 44.9452 -107.587
rradius 66.8377 0 0
rwrist -2.72357 0 0
rhand -6.50288 -22.0606 0
rfingers 7.12502 0 0
rthumb 19.3489 -771.118 0
823
root 2.19848 16.5409 23.6056 4.33689 -5.31586 352.339
lfemur -35.0324 -0.453025 3.73612
ltibia 17.0805 0 0
lfoot -7.48498 15.5082 0
ltoes 20.2182 0 0
rfemur 6.38067 6.49633 21.9535
rtibia 18.7135 0 0
rfoot -21.0288 -12.5431 0
rtoes -27.0176 0 0
lowerback -0.0824035 6.96821 5.86814
upperback -0.349717 9.28376 0.0491624
thorax 0.611739 4.64954 -3.0365
lowerneck -5.43714 -1.40558 3.42466
upperneck 0.591326 -2.12106 1.32274
head 1.06658 -1.02338 -0.215143
lclavicle 9.30456e-16 -5.26621e-16 0
lhumerus -53.471 -5.93253 90.112
lradius 51.8723 0 0
lwrist 18.0597 0 0
lhand -6.23072 5.52649 0
lfingers 7.12502 0 0
lthumb 19.6101 34.5533 0
rclavicle 9.30456e-16 -5.26621e-16 0
rhumerus -29.4613 44.7156 -107.308
rradius 66.7609 0 0
rwrist -2.70413 0 0
rhand -6.53798 -22.0995 0
rfingers 7.12502 0 0
rthumb 19.3151 -771.16 0
